<?xml version="1.0" encoding="utf-8"?>
<!-- Generator: Adobe Illustrator 27.6.1, SVG Export Plug-In . SVG Version: 6.00 Build 0)  -->
<svg version="1.1" id="Layer_1" xmlns="http://www.w3.org/2000/svg" xmlns:xlink="http://www.w3.org/1999/xlink" x="0px" y="0px"
	 viewBox="0 0 720 720" style="enable-background:new 0 0 720 720;" xml:space="preserve">
<style type="text/css">
	.st0{fill:#FF2E36;}
	.st1{fill:#FFFFFF;}
</style>
<g>
	<g>
		<path class="st0" d="M437.25,161l22.29,22.29h66.21v66.2l22.29,22.29V161H437.25z M525.75,450.78v66.19h-66.2l-22.29,22.29h110.77
			V428.49L525.75,450.78z M192.07,516.97v-66.19l-22.29-22.29v110.77h110.77l-22.29-22.29H192.07z M169.78,161v110.77l22.29-22.29
			v-66.2h66.21L280.57,161H169.78z"/>
	</g>
	<g>
		<g>
			<path class="st1" d="M121.9,302.47h47.3v17.69h-29.29v17.3h29.29v17.43h-29.29v42.9H121.9V302.47z"/>
			<path class="st1" d="M186.57,302.47h19.22c10.53,0,18.03,0.94,22.49,2.82s8.06,5,10.78,9.36c2.72,4.36,4.08,9.53,4.08,15.49
				c0,6.26-1.5,11.5-4.5,15.71c-3,4.21-7.53,7.4-13.57,9.56l22.58,42.38h-19.83l-21.43-40.37h-1.66v40.37h-18.14V302.47z
				 M204.72,339.73h5.69c5.77,0,9.74-0.76,11.92-2.28c2.17-1.52,3.26-4.03,3.26-7.54c0-2.08-0.54-3.89-1.62-5.43
				c-1.08-1.54-2.52-2.64-4.33-3.32c-1.81-0.67-5.12-1.01-9.95-1.01h-4.97V339.73z"/>
			<path class="st1" d="M291.4,302.47h18.4l36.66,95.32h-18.86l-7.46-19.63h-38.89l-7.75,19.63h-18.86L291.4,302.47z M300.72,327.74
				l-12.79,32.72h25.5L300.72,327.74z"/>
			<path class="st1" d="M369.74,302.47h17.68l22.1,66.48l22.3-66.48h17.67l15.99,95.32h-17.54l-10.22-60.2l-20.25,60.2h-15.99
				l-20.07-60.2l-10.47,60.2h-17.69L369.74,302.47z"/>
			<path class="st1" d="M479.99,302.47h52.03v17.76H498v17.24h34.02v17.43H498v25.08h34.02v17.82h-52.03V302.47z"/>
			<path class="st1" d="M598.96,315.43l-13.44,11.86c-4.72-6.57-9.52-9.85-14.41-9.85c-2.38,0-4.33,0.64-5.84,1.91
				c-1.51,1.28-2.27,2.71-2.27,4.31c0,1.6,0.54,3.11,1.62,4.54c1.47,1.9,5.91,5.98,13.31,12.25c6.92,5.79,11.12,9.44,12.59,10.95
				c3.68,3.72,6.28,7.27,7.82,10.66c1.54,3.39,2.3,7.1,2.3,11.11c0,7.82-2.7,14.28-8.11,19.37c-5.41,5.1-12.46,7.65-21.15,7.65
				c-6.79,0-12.7-1.66-17.74-4.99s-9.35-8.55-12.94-15.68l15.25-9.2c4.59,8.43,9.87,12.64,15.84,12.64c3.11,0,5.73-0.91,7.85-2.72
				c2.12-1.81,3.18-3.91,3.18-6.28c0-2.16-0.8-4.32-2.4-6.48c-1.6-2.16-5.13-5.46-10.58-9.91c-10.39-8.47-17.09-15-20.12-19.6
				c-3.03-4.6-4.54-9.19-4.54-13.77c0-6.61,2.52-12.28,7.56-17.01c5.04-4.73,11.26-7.1,18.65-7.1c4.76,0,9.29,1.1,13.59,3.3
				C589.28,305.58,593.94,309.6,598.96,315.43z"/>
		</g>
		<g>
			<path class="st1" d="M245.27,217.2l28.9,61.98h-6.69l-9.75-20.39h-26.7l-9.66,20.39h-6.91l29.28-61.98H245.27z M244.49,230.37
				l-10.62,22.43h21.19L244.49,230.37z"/>
			<path class="st1" d="M284.12,217.2h12.35c6.88,0,11.54,0.28,13.99,0.84c3.68,0.84,6.67,2.65,8.97,5.42
				c2.3,2.77,3.45,6.18,3.45,10.23c0,3.38-0.79,6.34-2.38,8.9s-3.86,4.49-6.8,5.8c-2.95,1.31-7.02,1.98-12.22,2l22.29,28.78h-7.66
				l-22.29-28.78h-3.5v28.78h-6.19V217.2z M290.31,223.27v21.07l10.68,0.08c4.14,0,7.2-0.39,9.18-1.18
				c1.98-0.79,3.53-2.04,4.64-3.77c1.11-1.73,1.67-3.66,1.67-5.79c0-2.08-0.56-3.97-1.69-5.67c-1.13-1.7-2.6-2.91-4.43-3.64
				c-1.83-0.73-4.87-1.1-9.12-1.1H290.31z"/>
			<path class="st1" d="M330.51,223.27v-6.07h33.96v6.07h-13.82v55.91h-6.32v-55.91H330.51z"/>
			<path class="st1" d="M426.81,215.64c9.39,0,17.24,3.13,23.57,9.4c6.32,6.26,9.49,13.97,9.49,23.13c0,9.07-3.16,16.77-9.47,23.09
				s-14,9.48-23.08,9.48c-9.19,0-16.95-3.15-23.27-9.44c-6.32-6.29-9.49-13.9-9.49-22.84c0-5.95,1.44-11.47,4.32-16.56
				c2.88-5.08,6.81-9.07,11.78-11.95C415.63,217.08,421.02,215.64,426.81,215.64z M427.08,221.66c-4.59,0-8.93,1.2-13.04,3.58
				c-4.11,2.39-7.32,5.61-9.62,9.66c-2.31,4.05-3.46,8.56-3.46,13.54c0,7.37,2.55,13.59,7.66,18.66c5.11,5.07,11.26,7.61,18.46,7.61
				c4.81,0,9.26-1.17,13.36-3.5c4.09-2.33,7.29-5.52,9.58-9.57c2.29-4.05,3.44-8.55,3.44-13.49c0-4.92-1.15-9.37-3.44-13.35
				s-5.52-7.16-9.68-9.55C436.17,222.86,431.75,221.66,427.08,221.66z"/>
			<path class="st1" d="M472.29,217.2h31.05v6.07h-24.86v19.42h24.86v6.07h-24.86v30.42h-6.19V217.2z"/>
		</g>
	</g>
	<path class="st0" d="M405.64,422.57c22.15,0,43.63,16.02,43.63,51.88c0,58.77-90.35,107.57-90.35,107.57s-90.35-48.8-90.35-107.57
		c0-35.87,21.47-51.89,43.63-51.88c20.45,0,41.48,13.65,46.73,37.94C364.15,436.22,385.18,422.57,405.64,422.57"/>
</g>
</svg>

